<svg id="Layer_3" data-name="Layer 3" xmlns="http://www.w3.org/2000/svg" viewBox="0 0 427.48 405.34"><defs><style>.cls-1{fill:#543537;}.cls-2{fill:#fdf6dc;}.cls-3{fill:#ffb6da;}.cls-4{fill:#85544d;}</style></defs><title>Cookie Cat</title><path class="cls-1" d="M39,291.33s-5.5,31.92,1,51.33C50.53,374.12,95.75,453.25,249,453c153.83-.25,206.08-85.54,210-113,3.41-23.92-.33-50.17-.33-50.17Z" transform="translate(-35.76 -47.67)"/><path class="cls-2" d="M250,258.25H40.5c-5.5,18.88-5.45,47.49-3.66,58s26.16,45,26.16,45L152.5,418l97.5,7.66Z" transform="translate(-35.76 -47.67)"/><path class="cls-3" d="M458.75,258.25H246.5V425.39l46,3.61L391,395l49-41,14-20a76.9,76.9,0,0,0,6.43-17.75C462.25,307.25,463.38,286.88,458.75,258.25Z" transform="translate(-35.76 -47.67)"/><polygon class="cls-3" points="262.24 108.33 257.74 171.34 342.74 183.34 340.74 107.33 262.24 108.33"/><polygon class="cls-2" points="76.74 108.83 72.24 171.84 157.24 183.84 155.24 107.83 76.74 108.83"/><path class="cls-1" d="M463,213.67,383.67,93l-292,28.33L35.87,213.67c.63,18.08.31,43.14,5.52,58.56,8.16,24.16,48.11,105.07,208,104.27,166.24-.83,202.26-85.07,208.9-104.17C462.33,260.83,463.83,233.33,463,213.67Zm-311.37.67c-16.94,0-30.67-10.75-30.67-24s13.73-24,30.67-24,30.67,10.75,30.67,24S168.6,214.33,151.67,214.33Zm184.67.67c-16.94,0-30.67-10.75-30.67-24s13.73-24,30.67-24S367,177.75,367,191,353.27,215,336.33,215Z" transform="translate(-35.76 -47.67)"/><path class="cls-4" d="M460.43,316.25c-14.76,41.92-87.92,103.5-211.8,104.25S53,354.5,36.84,316.25C38.47,351.75,98.26,436.5,248.63,436S460.19,351.49,460.43,316.25Z" transform="translate(-35.76 -47.67)"/><path class="cls-4" d="M458.67,174.33c-7.78-33.52-50.17-62.33-51-64S389.83,49.17,357.33,49c-24.33-.12-38.58,41.25-41,42.67-2.15,1.26-30.08-.92-66.33-1-38.76-.09-63.33,3-65.67.67s-20-43.33-46-43.67-46.67,62.67-48.67,64.67S47,137.25,38.33,181c-3.92,19.78-3.08,49.25,2,65.33C50.18,277.48,104.67,354.57,249,353c137.5-1.5,194.75-66,206-94C467.23,228.55,463,193,458.67,174.33ZM148,121c4.6,0,8.33,2.39,8.33,5.33s-3.73,5.33-8.33,5.33-8.33-2.39-8.33-5.33S143.4,121,148,121ZM67.67,224.33c-4.6,0-8.33-2.39-8.33-5.33s3.73-5.33,8.33-5.33S76,216.05,76,219,72.27,224.33,67.67,224.33ZM77.33,161c0-2.95,3.73-5.33,8.33-5.33S94,158.05,94,161s-3.73,5.33-8.33,5.33S77.33,163.95,77.33,161ZM95,277.33c-4.6,0-8.33-2.39-8.33-5.33s3.73-5.33,8.33-5.33,8.33,2.39,8.33,5.33S99.6,277.33,95,277.33Zm45-37c0-2.95,3.73-5.33,8.33-5.33s8.33,2.39,8.33,5.33-3.73,5.33-8.33,5.33S140,243.28,140,240.33Zm10.33,76c-4.6,0-8.33-2.39-8.33-5.33s3.73-5.33,8.33-5.33,8.33,2.39,8.33,5.33S154.94,316.33,150.33,316.33Zm1.33-102c-16.94,0-30.67-11.86-30.67-26.5s13.73-26.5,30.67-26.5,30.67,11.86,30.67,26.5S168.6,214.33,151.67,214.33Zm197-92.33c4.6,0,8.33,2.39,8.33,5.33s-3.73,5.33-8.33,5.33-8.33-2.39-8.33-5.33S344.06,122,348.67,122Zm-140,28.33c4.6,0,8.33,2.39,8.33,5.33s-3.73,5.33-8.33,5.33-8.33-2.39-8.33-5.33S204.06,150.33,208.67,150.33Zm.67,128c-4.6,0-8.33-2.39-8.33-5.33s3.73-5.33,8.33-5.33,8.33,2.39,8.33,5.33S213.94,278.33,209.33,278.33Zm38,59c-4.6,0-8.33-2.39-8.33-5.33s3.73-5.33,8.33-5.33,8.33,2.39,8.33,5.33S251.94,337.33,247.33,337.33ZM248,216c-4.6,0-8.33-2.39-8.33-5.33s3.73-5.33,8.33-5.33,8.33,2.39,8.33,5.33S252.6,216,248,216Zm40,62.67c-4.6,0-8.33-2.39-8.33-5.33S283.4,268,288,268s8.33,2.39,8.33,5.33S292.6,278.67,288,278.67ZM288.67,161c-4.6,0-8.33-2.39-8.33-5.33s3.73-5.33,8.33-5.33,8.33,2.39,8.33,5.33S293.27,161,288.67,161Zm54,155.67c-4.6,0-8.33-2.39-8.33-5.33s3.73-5.33,8.33-5.33,8.33,2.39,8.33,5.33S347.27,316.67,342.67,316.67Zm6-70.33c-4.6,0-8.33-2.39-8.33-5.33s3.73-5.33,8.33-5.33S357,238.05,357,241,353.27,246.33,348.67,246.33ZM336.33,215c-16.94,0-30.67-11.86-30.67-26.5S319.4,162,336.33,162,367,173.86,367,188.5,353.27,215,336.33,215ZM402,278.67c-4.6,0-8.33-2.39-8.33-5.33S397.4,268,402,268s8.33,2.39,8.33,5.33S406.6,278.67,402,278.67Zm9-111.33c-4.6,0-8.33-2.39-8.33-5.33s3.73-5.33,8.33-5.33,8.33,2.39,8.33,5.33S415.6,167.33,411,167.33ZM429.67,224c-4.6,0-8.33-2.39-8.33-5.33s3.73-5.33,8.33-5.33,8.33,2.39,8.33,5.33S434.27,224,429.67,224Z" transform="translate(-35.76 -47.67)"/></svg>