<svg xmlns="http://www.w3.org/2000/svg" viewBox="0 0 1500 379"><defs><style>.cls-1{fill:#d5ede9;}.cls-2{fill:#6e91b3;}.cls-3{fill:#fe9bbd;}.cls-4{fill:#fff;}</style></defs><title>title</title><g id="Layer_3" data-name="Layer 3"><path class="cls-1" d="M0,332c1.67-14,26.69-28,47.67-29,54-2.67,59.33,28.5,96.33,28.5s42.5-35,80.5-35,44.5,40,90.5,40S368,296,407,296c38.5,0,28,40,82,40s43-41,90-41,51.5,40,95.5,40,59-38.58,105.5-40c49-1.5,44.51,39.93,106,38.5,64.5-1.5,59.5-40,113.5-39.5,58,.54,63.5,36.5,118.5,36.5s55-36,122-36,33.12,32.35,105,36.5c52,3,49-35,99.67-34,13.66.27,53.67,11.67,55.33,30.67C1504.72,381.46,1631,565,1631,565L-63,559Z"/></g><g id="Layer_1" data-name="Layer 1"><path class="cls-1" d="M216.49,175.08q28.73,0,50.32,22.61v.17a19.54,19.54,0,0,1,6.29,14.79,20.56,20.56,0,0,1-35.53,14.11,32.44,32.44,0,0,0-21.08-7.82q-15,0-25.42,12.07t-10.46,29.07q0,17.17,10.46,29.15t25.42,12a32,32,0,0,0,21.42-8,20.15,20.15,0,0,1,14.28-5.78A20.61,20.61,0,0,1,272.76,308a19.25,19.25,0,0,1-6.12,14.62q-21.08,22.44-50.15,22.44a65.53,65.53,0,0,1-37.23-11.39,80.16,80.16,0,0,1-26.95-30.94,96.52,96.52,0,0,1,0-85.34,80.14,80.14,0,0,1,26.95-30.94,65.51,65.51,0,0,1,37.23-11.39m0-15A80.56,80.56,0,0,0,170.91,174a95.32,95.32,0,0,0-32,36.6,111.51,111.51,0,0,0,0,98.94,95.34,95.34,0,0,0,32,36.6,80.57,80.57,0,0,0,45.58,13.93c23.46,0,43.92-9,60.8-26.87A34.24,34.24,0,0,0,287.76,308a35.55,35.55,0,0,0-59.81-26,17,17,0,0,1-11.46,4.21c-5.63,0-10-2.11-14.11-6.85-4.55-5.21-6.76-11.52-6.76-19.3s2.22-14,6.79-19.25c4.13-4.77,8.47-6.89,14.08-6.89a17.26,17.26,0,0,1,11,4,35.57,35.57,0,0,0,51.24-49.32,15,15,0,0,0-1.07-1.25c-17.27-18.08-37.85-27.25-61.17-27.25Z"/><path class="cls-1" d="M1353.1,174.92v.17a19.13,19.13,0,0,1,13.09,5.78,17.85,17.85,0,0,1,5.44,13.09,18.33,18.33,0,0,1-5.44,13.34,19,19,0,0,1-13.09,5.87v.17h-30.43V323.16a14.16,14.16,0,0,1,.17,2.55,19.38,19.38,0,0,1-38.76,0,12.75,12.75,0,0,1,.17-2.38v-110h-29.41v-.17a19.13,19.13,0,0,1-13.26-5.87,18.32,18.32,0,0,1-5.44-13.34,17.84,17.84,0,0,1,5.44-13.09,19.31,19.31,0,0,1,13.26-5.78v-.17h98.26m0-15h-98.26a15,15,0,0,0-3.56.43,34.27,34.27,0,0,0-20.31,9.92,32.87,32.87,0,0,0-9.83,23.7,33.35,33.35,0,0,0,9.76,23.87,34.1,34.1,0,0,0,20.38,10.08,15,15,0,0,0,3.56.43h14.41v93.94a31.23,31.23,0,0,0-.17,3.43,34.38,34.38,0,0,0,68.76,0,33.29,33.29,0,0,0-.17-3.57v-93.8h15.43a15,15,0,0,0,3.6-.43,34,34,0,0,0,20.18-10.07,33.36,33.36,0,0,0,9.75-23.87,32.87,32.87,0,0,0-9.83-23.69,34.19,34.19,0,0,0-20.1-9.91,15,15,0,0,0-3.6-.43Z"/><path class="cls-1" d="M436.58,216A102.08,102.08,0,0,0,420,190c-17.47-20-39-30.12-63.91-30.12S309.62,170,292.15,190c-17,19.39-25.55,43-25.55,70.05s8.6,50.65,25.57,70c17.47,19.91,39,30,63.89,30s46.42-10.1,63.89-30a101,101,0,0,0,18.93-31.53ZM408.67,320.18q-21.85,24.9-52.62,24.9t-52.62-24.9q-21.85-24.9-21.84-60.1t21.84-60.18q21.84-25,52.62-25t52.62,25q21.84,25,21.84,60.18T408.67,320.18Z"/><path class="cls-1" d="M356.06,218.94q-15,0-25.5,12.07T320,260.08q0,17,10.54,29.07t25.5,12.07q15,0,25.5-12.07t10.54-29.07q0-17-10.54-29.07T356.06,218.94Zm14.2,60.34c-4.19,4.8-8.57,6.94-14.2,6.94s-10-2.14-14.2-6.93c-4.6-5.27-6.84-11.55-6.84-19.21s2.24-13.93,6.84-19.2c4.19-4.8,8.57-6.94,14.2-6.94s10,2.14,14.2,6.94c4.6,5.27,6.84,11.55,6.84,19.2S374.86,274,370.26,279.29Z"/><path class="cls-1" d="M513.48,218.94q-15,0-25.5,12.07t-10.54,29.07q0,17,10.54,29.07t25.5,12.07q15,0,25.5-12.07t10.54-29.07q0-17-10.54-29.07T513.48,218.94Zm14.2,60.34c-4.19,4.8-8.57,6.94-14.2,6.94s-10-2.14-14.2-6.93c-4.6-5.27-6.84-11.55-6.84-19.21s2.24-13.93,6.84-19.2c4.19-4.8,8.57-6.94,14.2-6.94s10,2.14,14.2,6.94c4.6,5.27,6.84,11.55,6.84,19.2S532.28,274,527.68,279.29Z"/><path class="cls-1" d="M595.25,218.93A101.69,101.69,0,0,0,577.39,190c-17.47-20-39-30.12-63.91-30.12S467,170,449.57,190a101.57,101.57,0,0,0-18.11,29.52l1.29.2,1.5,81-3-.79a101,101,0,0,0,18.37,30.11c17.47,19.91,39,30,63.89,30s46.42-10.1,63.89-30a101.23,101.23,0,0,0,17.88-28.86ZM566.09,320.18q-21.85,24.9-52.62,24.9t-52.62-24.9Q439,295.28,439,260.08t21.84-60.18q21.84-25,52.62-25t52.62,25q21.84,25,21.84,60.18T566.09,320.18Z"/><path class="cls-1" d="M734.67,327.67l.8-42a35.09,35.09,0,0,0-2.95-3.18l-39.05-41.9,17.8-19a15,15,0,0,0,2.76-4.16,32.69,32.69,0,0,0-5.14-40.24A32.6,32.6,0,0,0,666.38,174a15,15,0,0,0-2.86,2.24c-1.73,1.73-2.77,2.83-3.54,3.76l-9.27,10a34.83,34.83,0,0,0-69.26,3.54q0,.32,0,.63v26.25l8.06,1.13,1,87.25-9.06-6v22.79q0,.15,0,.31A34.52,34.52,0,0,0,591.7,350a34.7,34.7,0,0,0,48.92,0,34.42,34.42,0,0,0,10.08-21.24,15,15,0,0,0,.35-3.22V292l33.17,35.54a28.86,28.86,0,0,0,11.17,8.87,33.84,33.84,0,0,0,14.44,3.29,32.23,32.23,0,0,0,23.44-9.83c.66-.67,1.28-1.36,1.87-2.07Zm-12.09-8.34a17.23,17.23,0,0,1-12.75,5.35,18.88,18.88,0,0,1-8.08-1.87,13.6,13.6,0,0,1-5.87-4.76l-47.6-51L636,280.15v45.39h-.17A19.47,19.47,0,0,1,630,339.39a19.7,19.7,0,0,1-27.71,0,19.45,19.45,0,0,1-5.87-13.85V194.13a19.9,19.9,0,0,1,19.89-19A19,19,0,0,1,630,180.61a19.33,19.33,0,0,1,6,13.52v33.66l35.36-38.08a33.58,33.58,0,0,1,2.72-2.89h.17a17.95,17.95,0,0,1,29.41,13.77,16.69,16.69,0,0,1-3.57,10.54l.17.17-27.37,29.24,49,52.53a17.48,17.48,0,0,1,6,13.43A17.66,17.66,0,0,1,722.58,319.33Z"/><path class="cls-1" d="M880.11,227a33.61,33.61,0,0,0-2.66-67.13H800.78a33.91,33.91,0,0,0-23,9.4,33.29,33.29,0,0,0-7.08,9.66l4.14.18.17,160.5-5-.56a33.69,33.69,0,0,0,19.14,18.71,14.93,14.93,0,0,0,7.93,2.26h68.34a35.74,35.74,0,0,0,25.47-60.81,35.8,35.8,0,0,0-10.77-7.55,34,34,0,0,0,11.21-55.33,32.94,32.94,0,0,0-16.55-9.08h2.54A15.09,15.09,0,0,0,880.11,227Zm-12.69,14.51a18.58,18.58,0,0,1,18.7,18.7,18.33,18.33,0,0,1-5.44,13.35,17.9,17.9,0,0,1-13.26,5.52H820v24.31h45.73v.17a20.74,20.74,0,0,1-.34,41.48H797v-.51a18.16,18.16,0,0,1-10.2-6.21,17.35,17.35,0,0,1-4.25-11h-.17V192.77a17.87,17.87,0,0,1,5.7-12.58,18.81,18.81,0,0,1,13-5.27h76.33a18.19,18.19,0,0,1,13.26,5.35,17.77,17.77,0,0,1,5.44,13.17,18.58,18.58,0,0,1-18.7,18.7h-.17v.17H820v29.24Z"/><path class="cls-1" d="M781.33,340.67,779,180.33h7.24a33,33,0,0,0-7.41-10.66,34.2,34.2,0,0,0-47.57.08,32.76,32.76,0,0,0-9.92,23.86v94.66l11.57,3.06-.25,31-11.32,3.45v.94q0,.16,0,.33A33.86,33.86,0,0,0,786,340.17Zm-7.42-14.28a17.92,17.92,0,0,1-5.53,13.26A18.33,18.33,0,0,1,755,345.08a18.72,18.72,0,0,1-18.7-18.36V193.61a17.76,17.76,0,0,1,5.44-13.17A18.19,18.19,0,0,1,755,175.08a18.48,18.48,0,0,1,13.34,5.35,17.64,17.64,0,0,1,5.53,13.17Z"/><path class="cls-1" d="M1274.49,313.23a15,15,0,0,0-.56-1.76L1225.55,186a27.86,27.86,0,0,0-2.07-5.39l-.16-.33a14.94,14.94,0,0,0-3-5.46c-6.5-9.55-16.5-14.77-28.4-14.77a34.72,34.72,0,0,0-30.73,18.28,15,15,0,0,0-1,2.19c0,.09-.16.42-.46,1.14a30.64,30.64,0,0,0-1.22,3.47L1133.34,251h-7.19a15.09,15.09,0,0,0-2.71.24,35,35,0,0,0-32.69,35,36.84,36.84,0,0,0,.29,4.6l4.2-1.36,7,20-2.52.22q.62.68,1.28,1.34a35.62,35.62,0,0,0,7.12,5.54,15,15,0,0,0-.54,3.72,37.52,37.52,0,0,0-.34,5,34.19,34.19,0,0,0,10,24.47,33.74,33.74,0,0,0,24.54,10.25A34.71,34.71,0,0,0,1175,335.73l5.63-14.57h22.47l5.85,15a20.57,20.57,0,0,0,1.8,4.41c6.55,12.58,17.6,19.51,31.17,19.51a34.73,34.73,0,0,0,34.72-34.72C1276.64,323.13,1276.29,320.42,1274.49,313.23Zm-18.63,26.07a19,19,0,0,1-13.94,5.78q-12.07,0-18-11.73a6.49,6.49,0,0,1-.68-1.87l-9.86-25.33h-43l-9.52,24.65a19.82,19.82,0,0,1-7.06,10.29,19.1,19.1,0,0,1-12,4,18.72,18.72,0,0,1-13.86-5.78,19.14,19.14,0,0,1-5.69-13.94,22.66,22.66,0,0,1,.51-4.76h-.17q.17-.51.59-1.53t.59-1.53l4.42-11.39a12.75,12.75,0,0,1-2.38.17,20.06,20.06,0,1,1,0-40.12h.34V266h17.51l29.24-76.33a13.16,13.16,0,0,1,.77-2.29c.4-1,.65-1.62.76-2a19.31,19.31,0,0,1,7.22-7.56,19.62,19.62,0,0,1,10.29-2.81q11.22,0,16.83,9.52h.17a12.6,12.6,0,0,0,1.11,2.72,10.82,10.82,0,0,1,1.1,3.06l48.79,126.48a51.22,51.22,0,0,1,1.7,8.5A19,19,0,0,1,1255.86,339.31Z"/><polygon class="cls-1" points="1185.82 266.04 1197.89 266.04 1191.94 249.88 1185.82 266.04"/><path class="cls-1" d="M1108.75,305.5l-8.75-19,3.5-1.42c-.64-.75-1.3-1.48-2-2.19a35.52,35.52,0,0,0-49.39-.87,17,17,0,0,1-11.46,4.21c-5.63,0-10-2.11-14.11-6.85-4.55-5.21-6.76-11.52-6.76-19.29s2.22-14,6.79-19.25c4.13-4.77,8.47-6.89,14.08-6.89a17.26,17.26,0,0,1,11,4,35.57,35.57,0,0,0,51.24-49.32,15,15,0,0,0-1.07-1.25c-17.27-18.08-37.85-27.25-61.17-27.25A80.56,80.56,0,0,0,995.06,174a95.32,95.32,0,0,0-32,36.6,111.51,111.51,0,0,0,0,98.94,95.34,95.34,0,0,0,32,36.6,80.57,80.57,0,0,0,45.58,13.93c23.46,0,43.92-9,60.8-26.87A34.24,34.24,0,0,0,1111.91,308a37.25,37.25,0,0,0-.23-4.12Zm-18,17.15q-21.08,22.44-50.15,22.44a65.53,65.53,0,0,1-37.23-11.39,80.16,80.16,0,0,1-26.95-30.94,96.52,96.52,0,0,1,0-85.34,80.14,80.14,0,0,1,26.95-30.94,65.51,65.51,0,0,1,37.23-11.39q28.73,0,50.32,22.61v.17a19.54,19.54,0,0,1,6.29,14.79,20.56,20.56,0,0,1-35.53,14.11,32.44,32.44,0,0,0-21.08-7.82q-15,0-25.42,12.07t-10.46,29.07q0,17.17,10.46,29.15t25.42,12a32,32,0,0,0,21.42-8,20.15,20.15,0,0,1,14.28-5.78A20.61,20.61,0,0,1,1096.91,308,19.25,19.25,0,0,1,1090.79,322.65Z"/><path class="cls-2" d="M1269.67,159l-42,6L1219,185.67l-28.67-28-28,12-32,81.33-36.67,6-9.92,19.27-30.08-4.6-16,12.67L1006.33,269l5.33-42,32.67-9.33,27.33,12.67,20.67-14,3.33-18.67L1067,161l-73.33,2.67L955,213l2.67,79.33,36,40.67,65.33,6,45.91-41,9.42,38.31L1147,343l18.67-40,34,.67,24.67,38,30-6.67L1271,323.67l24.67,20,28-17.33,2-116,35.33-4,12-28.67-21.33-19.33Zm-2.17,144.23-43.6-95.4,45.77,3.84Z"/><path class="cls-3" d="M956.88,268.82l.79,23.51,36,40.67,65.33,6,45.91-41,9.42,38.31L1147,343l18.67-40,34,.67,24.67,38,30-6.67L1271,323.67l24.67,20,28-17.33L1324.9,255c-5,2.95-11.41,5.11-21.06,5.11-21.62,0-24.45-10.84-34.91-17.06l-1.43,60.18-28.75-62.91c-18.16,5.09-22.7,21-49.58,21-30.77,0-24.56-23.89-52.78-25.74L1130.33,251l-33.71,5.52a39.18,39.18,0,0,1-4.43,3.36l-8.43,16.39-30.08-4.6-16,12.67L1006.33,269l3.75-29.52C990.78,242.17,984.37,263.63,956.88,268.82Z"/><path class="cls-2" d="M895,183.67l-11.33-25.33-105.33,5.33-30-8.67-26.67,22L721,273.67l-42.67-42,12-16.67,12-32.67-25.33-18L637.67,191l-13.33-30.67-32.67.67L581,198.33l-48-38-62.67,4L429,215l-37.33-48.67-67.33-8-48,42-32-38-64-.67L135.67,211l-6.55,66.09L141.67,309l52,34.67,62.67-16L273,292.33l43.33,46L387.67,335l38-52.67,48.67,55.33H539l38-34L595,339l33.33-2.67,9.33-64.67,48.67,44.67,28,.72L733,339.67l25.33-4L825.67,345,879,337l7.33-32.67L863,285.67l16-16,6-33.33-35.33-18,33.33-12Zm-632.67,88-38,8.67-34-3.33-10-34,23.33-26L235,229l31.33-6.67Zm86,12L319,257l18-39.33,25.33-.67L379,261.67Zm153.33,2-26-25.33,10-39.33,42,2.67,6,41.33Z"/><path class="cls-3" d="M884.54,238.87a43,43,0,0,0-11-1.33c-34.67,0-36,31.6-67.33,31.6s-23-32.85-61.67-32.42c-11.42.13-18.07,3.71-23.3,8.55l-.2,28.39-13.51-13.3c-6.9,6.62-16.5,12.05-35.32,12.05-48,0-22.67-38.57-66-38.57S573,272.74,535.6,272.74a41.15,41.15,0,0,1-11.52-1.54l-22.41,14.47-26-25.33,5.85-23c-6.36-3.58-14.2-5.93-24.68-5.93-44,0-41.89,36.73-71.22,36.73a27.3,27.3,0,0,1-11.93-2.64l-25.35,18.18L319,257l12.21-26.68a46.12,46.12,0,0,0-17-3c-23.27,0-37.36,14.69-50.41,26.83l-1.42,17.55-38,8.67-34-3.33-10-34,6.09-6.79c-9.48-7-20.6-12.21-34.93-12.21A50.34,50.34,0,0,0,134,227.4l-4.92,49.69L141.67,309l52,34.67,62.67-16L273,292.33l43.33,46L387.67,335l38-52.67,48.67,55.33H539l38-34L595,339l33.33-2.67,9.33-64.67,48.67,44.67,28,.72L733,339.67l25.33-4L825.67,345,879,337l7.33-32.67L863,285.67l16-16Z"/><path class="cls-4" d="M209.49,165.08q28.73,0,50.32,22.61v.17a19.54,19.54,0,0,1,6.29,14.79,20.56,20.56,0,0,1-35.53,14.11,32.44,32.44,0,0,0-21.08-7.82q-15,0-25.42,12.07t-10.46,29.07q0,17.17,10.46,29.15t25.42,12a32,32,0,0,0,21.42-8,20.15,20.15,0,0,1,14.28-5.78A20.61,20.61,0,0,1,265.76,298a19.25,19.25,0,0,1-6.12,14.62q-21.08,22.44-50.15,22.44a65.53,65.53,0,0,1-37.23-11.39,80.16,80.16,0,0,1-26.95-30.94,96.52,96.52,0,0,1,0-85.34,80.14,80.14,0,0,1,26.95-30.94,65.51,65.51,0,0,1,37.23-11.39m0-15A80.56,80.56,0,0,0,163.91,164a95.32,95.32,0,0,0-32,36.6,111.51,111.51,0,0,0,0,98.94,95.34,95.34,0,0,0,32,36.6,80.57,80.57,0,0,0,45.58,13.93c23.46,0,43.92-9,60.8-26.87A34.24,34.24,0,0,0,280.76,298a35.55,35.55,0,0,0-59.81-26,17,17,0,0,1-11.46,4.21c-5.63,0-10-2.11-14.11-6.85-4.55-5.21-6.76-11.52-6.76-19.3s2.22-14,6.79-19.25c4.13-4.77,8.47-6.89,14.08-6.89a17.26,17.26,0,0,1,11,4,35.57,35.57,0,0,0,51.24-49.32,15,15,0,0,0-1.07-1.25c-17.27-18.08-37.85-27.25-61.17-27.25Z"/><path class="cls-4" d="M1346.1,164.92v.17a19.13,19.13,0,0,1,13.09,5.78,17.85,17.85,0,0,1,5.44,13.09,18.33,18.33,0,0,1-5.44,13.34,19,19,0,0,1-13.09,5.87v.17h-30.43V313.16a14.16,14.16,0,0,1,.17,2.55,19.38,19.38,0,0,1-38.76,0,12.75,12.75,0,0,1,.17-2.38v-110h-29.41v-.17a19.13,19.13,0,0,1-13.26-5.87,18.32,18.32,0,0,1-5.44-13.34,17.84,17.84,0,0,1,5.44-13.09,19.31,19.31,0,0,1,13.26-5.78v-.17h98.26m0-15h-98.26a15,15,0,0,0-3.56.43,34.27,34.27,0,0,0-20.31,9.92,32.87,32.87,0,0,0-9.83,23.7,33.35,33.35,0,0,0,9.76,23.87,34.1,34.1,0,0,0,20.38,10.08,15,15,0,0,0,3.56.43h14.41v93.94a31.23,31.23,0,0,0-.17,3.43,34.38,34.38,0,0,0,68.76,0,33.29,33.29,0,0,0-.17-3.57v-93.8h15.43a15,15,0,0,0,3.6-.43,34,34,0,0,0,20.18-10.07,33.36,33.36,0,0,0,9.75-23.87,32.87,32.87,0,0,0-9.83-23.69,34.19,34.19,0,0,0-20.1-9.91,15,15,0,0,0-3.6-.43Z"/><path class="cls-4" d="M429.58,206A102.08,102.08,0,0,0,413,180c-17.47-20-39-30.12-63.91-30.12S302.62,160,285.15,180c-17,19.39-25.55,43-25.55,70.05s8.6,50.65,25.57,70c17.47,19.91,39,30,63.89,30s46.42-10.1,63.89-30a101,101,0,0,0,18.93-31.53ZM401.67,310.18q-21.85,24.9-52.62,24.9t-52.62-24.9q-21.85-24.9-21.84-60.1t21.84-60.18q21.84-25,52.62-25t52.62,25q21.84,25,21.84,60.18T401.67,310.18Z"/><path class="cls-4" d="M349.06,208.94q-15,0-25.5,12.07T313,250.08q0,17,10.54,29.07t25.5,12.07q15,0,25.5-12.07t10.54-29.07q0-17-10.54-29.07T349.06,208.94Zm14.2,60.34c-4.19,4.8-8.57,6.94-14.2,6.94s-10-2.14-14.2-6.93c-4.6-5.27-6.84-11.55-6.84-19.21s2.24-13.93,6.84-19.2c4.19-4.8,8.57-6.94,14.2-6.94s10,2.14,14.2,6.94c4.6,5.27,6.84,11.55,6.84,19.2S367.86,264,363.26,269.29Z"/><path class="cls-4" d="M506.48,208.94q-15,0-25.5,12.07t-10.54,29.07q0,17,10.54,29.07t25.5,12.07q15,0,25.5-12.07t10.54-29.07q0-17-10.54-29.07T506.48,208.94Zm14.2,60.34c-4.19,4.8-8.57,6.94-14.2,6.94s-10-2.14-14.2-6.93c-4.6-5.27-6.84-11.55-6.84-19.21s2.24-13.93,6.84-19.2c4.19-4.8,8.57-6.94,14.2-6.94s10,2.14,14.2,6.94c4.6,5.27,6.84,11.55,6.84,19.2S525.28,264,520.68,269.29Z"/><path class="cls-4" d="M588.25,208.93A101.69,101.69,0,0,0,570.39,180c-17.47-20-39-30.12-63.91-30.12S460,160,442.57,180a101.57,101.57,0,0,0-18.11,29.52l1.29.2,1.5,81-3-.79a101,101,0,0,0,18.37,30.11c17.47,19.91,39,30,63.89,30s46.42-10.1,63.89-30a101.23,101.23,0,0,0,17.88-28.86ZM559.09,310.18q-21.85,24.9-52.62,24.9t-52.62-24.9Q432,285.28,432,250.08t21.84-60.18q21.84-25,52.62-25t52.62,25q21.84,25,21.84,60.18T559.09,310.18Z"/><path class="cls-4" d="M727.67,317.67l.8-42a35.09,35.09,0,0,0-2.95-3.18l-39.05-41.9,17.8-19a15,15,0,0,0,2.76-4.16,32.69,32.69,0,0,0-5.14-40.24A32.6,32.6,0,0,0,659.38,164a15,15,0,0,0-2.86,2.24c-1.73,1.73-2.77,2.83-3.54,3.76l-9.27,10a34.83,34.83,0,0,0-69.26,3.54q0,.32,0,.63v26.25l8.06,1.13,1,87.25-9.06-6v22.79q0,.15,0,.31A34.52,34.52,0,0,0,584.7,340a34.7,34.7,0,0,0,48.92,0,34.42,34.42,0,0,0,10.08-21.24,15,15,0,0,0,.35-3.22V282l33.17,35.54a28.86,28.86,0,0,0,11.17,8.87,33.84,33.84,0,0,0,14.44,3.29,32.23,32.23,0,0,0,23.44-9.83c.66-.67,1.28-1.36,1.87-2.07Zm-12.09-8.34a17.23,17.23,0,0,1-12.75,5.35,18.88,18.88,0,0,1-8.08-1.87,13.6,13.6,0,0,1-5.87-4.76l-47.6-51L629,270.15v45.39h-.17A19.47,19.47,0,0,1,623,329.39a19.7,19.7,0,0,1-27.71,0,19.45,19.45,0,0,1-5.87-13.85V184.13a19.9,19.9,0,0,1,19.89-19A19,19,0,0,1,623,170.61a19.33,19.33,0,0,1,6,13.52v33.66l35.36-38.08a33.58,33.58,0,0,1,2.72-2.89h.17a17.95,17.95,0,0,1,29.41,13.77,16.69,16.69,0,0,1-3.57,10.54l.17.17-27.37,29.24,49,52.53a17.48,17.48,0,0,1,6,13.43A17.66,17.66,0,0,1,715.58,309.33Z"/><path class="cls-4" d="M873.11,217a33.61,33.61,0,0,0-2.66-67.13H793.78a33.91,33.91,0,0,0-23,9.4,33.29,33.29,0,0,0-7.08,9.66l4.14.18.17,160.5-5-.56a33.69,33.69,0,0,0,19.14,18.71,14.93,14.93,0,0,0,7.93,2.26h68.34a35.74,35.74,0,0,0,25.47-60.81,35.8,35.8,0,0,0-10.77-7.55,34,34,0,0,0,11.21-55.33,32.94,32.94,0,0,0-16.55-9.08h2.54A15.09,15.09,0,0,0,873.11,217Zm-12.69,14.51a18.58,18.58,0,0,1,18.7,18.7,18.33,18.33,0,0,1-5.44,13.35,17.9,17.9,0,0,1-13.26,5.52H813v24.31h45.73v.17a20.74,20.74,0,0,1-.34,41.48H790v-.51a18.16,18.16,0,0,1-10.2-6.21,17.35,17.35,0,0,1-4.25-11h-.17V182.77a17.87,17.87,0,0,1,5.7-12.58,18.81,18.81,0,0,1,13-5.27h76.33a18.19,18.19,0,0,1,13.26,5.35,17.77,17.77,0,0,1,5.44,13.17,18.58,18.58,0,0,1-18.7,18.7h-.17v.17H813v29.24Z"/><path class="cls-4" d="M774.33,330.67,772,170.33h7.24a33,33,0,0,0-7.41-10.66,34.2,34.2,0,0,0-47.57.08,32.76,32.76,0,0,0-9.92,23.86v94.66l11.57,3.06-.25,31-11.32,3.45v.94q0,.16,0,.33A33.86,33.86,0,0,0,779,330.17Zm-7.42-14.28a17.92,17.92,0,0,1-5.53,13.26A18.33,18.33,0,0,1,748,335.08a18.72,18.72,0,0,1-18.7-18.36V183.61a17.76,17.76,0,0,1,5.44-13.17A18.19,18.19,0,0,1,748,165.08a18.48,18.48,0,0,1,13.34,5.35,17.64,17.64,0,0,1,5.53,13.17Z"/><path class="cls-4" d="M1267.49,303.23a15,15,0,0,0-.56-1.76L1218.55,176a27.86,27.86,0,0,0-2.07-5.39l-.16-.33a14.94,14.94,0,0,0-3-5.46c-6.5-9.55-16.5-14.77-28.4-14.77a34.72,34.72,0,0,0-30.73,18.28,15,15,0,0,0-1,2.19c0,.09-.16.42-.46,1.14a30.64,30.64,0,0,0-1.22,3.47L1126.34,241h-7.19a15.09,15.09,0,0,0-2.71.24,35,35,0,0,0-32.69,35,36.84,36.84,0,0,0,.29,4.6l4.2-1.36,7,20-2.52.22q.62.68,1.28,1.34a35.62,35.62,0,0,0,7.12,5.54,15,15,0,0,0-.54,3.72,37.52,37.52,0,0,0-.34,5,34.19,34.19,0,0,0,10,24.47,33.74,33.74,0,0,0,24.54,10.25A34.71,34.71,0,0,0,1168,325.73l5.63-14.57h22.47l5.85,15a20.57,20.57,0,0,0,1.8,4.41c6.55,12.58,17.6,19.51,31.17,19.51a34.73,34.73,0,0,0,34.72-34.72C1269.64,313.13,1269.29,310.42,1267.49,303.23Zm-18.63,26.07a19,19,0,0,1-13.94,5.78q-12.07,0-18-11.73a6.49,6.49,0,0,1-.68-1.87l-9.86-25.33h-43l-9.52,24.65a19.82,19.82,0,0,1-7.06,10.29,19.1,19.1,0,0,1-12,4,18.72,18.72,0,0,1-13.86-5.78,19.14,19.14,0,0,1-5.69-13.94,22.66,22.66,0,0,1,.51-4.76h-.17q.17-.51.59-1.53t.59-1.53l4.42-11.39a12.75,12.75,0,0,1-2.38.17,20.06,20.06,0,1,1,0-40.12h.34V256h17.51l29.24-76.33a13.16,13.16,0,0,1,.77-2.29c.4-1,.65-1.62.76-2a19.31,19.31,0,0,1,7.22-7.56,19.62,19.62,0,0,1,10.29-2.81q11.22,0,16.83,9.52h.17a12.6,12.6,0,0,0,1.11,2.72,10.82,10.82,0,0,1,1.1,3.06l48.79,126.48a51.22,51.22,0,0,1,1.7,8.5A19,19,0,0,1,1248.86,329.31Z"/><polygon class="cls-4" points="1178.82 256.04 1190.89 256.04 1184.94 239.88 1178.82 256.04"/><path class="cls-4" d="M1101.75,295.5l-8.75-19,3.5-1.42c-.64-.75-1.3-1.48-2-2.19a35.52,35.52,0,0,0-49.39-.87,17,17,0,0,1-11.46,4.21c-5.63,0-10-2.11-14.11-6.85-4.55-5.21-6.76-11.52-6.76-19.29s2.22-14,6.79-19.25c4.13-4.77,8.47-6.89,14.08-6.89a17.26,17.26,0,0,1,11,4,35.57,35.57,0,0,0,51.24-49.32,15,15,0,0,0-1.07-1.25c-17.27-18.08-37.85-27.25-61.17-27.25A80.56,80.56,0,0,0,988.06,164a95.32,95.32,0,0,0-32,36.6,111.51,111.51,0,0,0,0,98.94,95.34,95.34,0,0,0,32,36.6,80.57,80.57,0,0,0,45.58,13.93c23.46,0,43.92-9,60.8-26.87A34.24,34.24,0,0,0,1104.91,298a37.25,37.25,0,0,0-.23-4.12Zm-18,17.15q-21.08,22.44-50.15,22.44a65.53,65.53,0,0,1-37.23-11.39,80.16,80.16,0,0,1-26.95-30.94,96.52,96.52,0,0,1,0-85.34,80.14,80.14,0,0,1,26.95-30.94,65.51,65.51,0,0,1,37.23-11.39q28.73,0,50.32,22.61v.17a19.54,19.54,0,0,1,6.29,14.79,20.56,20.56,0,0,1-35.53,14.11,32.44,32.44,0,0,0-21.08-7.82q-15,0-25.42,12.07t-10.46,29.07q0,17.17,10.46,29.15t25.42,12a32,32,0,0,0,21.42-8,20.15,20.15,0,0,1,14.28-5.78A20.61,20.61,0,0,1,1089.91,298,19.25,19.25,0,0,1,1083.79,312.65Z"/></g></svg>